<svg width="256" height="256" viewBox="0 0 100 100" xmlns="http://www.w3.org/2000/svg">
  <defs>
    <linearGradient id="grad1" x1="0%" y1="0%" x2="100%" y2="100%">
      <stop offset="0%" style="stop-color: #8B5CF6;" />
      <stop offset="100%" style="stop-color: #6366F1;" />
    </linearGradient>
  </defs>
  <rect width="100" height="100" rx="22" fill="url(#grad1)" />
  <g transform="translate(50 50) scale(0.6)">
    <!-- Gear for Tools -->
    <path d="M0 -38 A38 38 0 0 1 0 38 A38 38 0 0 1 0 -38 Z M0 -30 A30 30 0 0 0 0 30 A30 30 0 0 0 0 -30 Z" fill="white" fill-opacity="0.2"/>
    <g stroke="white" stroke-width="5" stroke-linecap="round">
        <path d="M0 -32 V -42" /> <path d="M0 32 V 42" />
        <path d="M-32 0 H -42" /> <path d="M32 0 H 42" />
        <path d="M-22.6 -22.6 L -29.7 -29.7" /> <path d="M22.6 22.6 L 29.7 29.7" />
        <path d="M-22.6 22.6 L -29.7 29.7" /> <path d="M22.6 -22.6 L 29.7 -29.7" />
    </g>
    <!-- AI Circuit Brain -->
    <circle cx="0" cy="0" r="15" fill="none" stroke="white" stroke-width="5"/>
    <circle cx="-12" cy="-8" r="4" fill="white"/>
    <circle cx="12" cy="-8" r="4" fill="white"/>
    <path d="M -8 5 C -5 15, 5 15, 8 5" fill="none" stroke="white" stroke-width="5" stroke-linecap="round"/>
  </g>
</svg>