<?xml version="1.0" standalone="no"?><!DOCTYPE svg PUBLIC "-//W3C//DTD SVG 1.1//EN" "http://www.w3.org/Graphics/SVG/1.1/DTD/svg11.dtd"><svg t="1754043552788" class="icon" viewBox="0 0 1024 1024" version="1.1" xmlns="http://www.w3.org/2000/svg" p-id="1706" xmlns:xlink="http://www.w3.org/1999/xlink" width="200" height="200"><path d="M915.922 632.111c-23.976 0-43.412 19.436-43.412 43.411v153.801c0 23.976-19.436 43.411-43.411 43.411H194.247c-23.975 0-43.411-19.436-43.411-43.411v-153.8c0-23.975-19.436-43.411-43.411-43.411s-43.411 19.436-43.411 43.411v197.212c0 47.951 38.872 86.823 86.823 86.823H872.51c47.951 0 86.823-38.872 86.823-86.823V675.523c0-23.976-19.436-43.412-43.411-43.412z" fill="#007bff" p-id="1707"></path><path d="M746.033 443.103c-16.966-16.966-44.474-16.966-61.44 0L560.319 567.377V107.696c0-23.994-19.451-43.444-43.444-43.444-23.994 0-43.444 19.451-43.444 43.444v459.683L349.156 443.105c-16.966-16.966-44.474-16.966-61.44 0s-16.966 44.474 0 61.44L485.862 702.69c0.097 0.099 0.187 0.202 0.285 0.3a43.993 43.993 0 0 0 3.043 2.762l0.055 0.047c0.492 0.406 0.993 0.797 1.499 1.178l0.161 0.125c0.493 0.368 0.993 0.72 1.497 1.065 0.076 0.052 0.151 0.107 0.228 0.159 0.487 0.328 0.98 0.641 1.477 0.947 0.106 0.065 0.21 0.134 0.317 0.198 0.471 0.284 0.947 0.555 1.425 0.82 0.146 0.081 0.29 0.164 0.437 0.244 0.442 0.238 0.889 0.463 1.338 0.685 0.197 0.097 0.392 0.197 0.591 0.292 0.402 0.191 0.808 0.371 1.215 0.549 0.256 0.112 0.511 0.227 0.769 0.334 0.356 0.148 0.714 0.285 1.072 0.423 0.318 0.122 0.634 0.245 0.955 0.36 0.308 0.11 0.619 0.211 0.929 0.314 0.374 0.124 0.747 0.249 1.125 0.363 0.268 0.081 0.538 0.154 0.807 0.229 0.42 0.118 0.84 0.236 1.265 0.341 0.24 0.06 0.481 0.111 0.721 0.166 0.451 0.104 0.903 0.207 1.359 0.297 0.23 0.045 0.46 0.082 0.691 0.123 0.465 0.084 0.93 0.167 1.4 0.236 0.241 0.035 0.482 0.061 0.723 0.092 0.458 0.059 0.915 0.12 1.378 0.165l0.083 0.01c0.29 0.028 0.581 0.041 0.872 0.063 0.386 0.029 0.769 0.064 1.158 0.083 0.68 0.033 1.36 0.05 2.04 0.052l0.096 0.002h0.003c0.72 0 1.44-0.019 2.159-0.055 0.289-0.014 0.575-0.042 0.863-0.062 0.421-0.029 0.842-0.055 1.262-0.096 0.372-0.036 0.74-0.087 1.11-0.133 0.331-0.041 0.663-0.077 0.993-0.126 0.4-0.059 0.796-0.131 1.193-0.201 0.3-0.053 0.601-0.102 0.9-0.161 0.397-0.079 0.789-0.169 1.182-0.258 0.3-0.068 0.601-0.133 0.9-0.208 0.371-0.093 0.738-0.196 1.106-0.298 0.323-0.09 0.646-0.177 0.966-0.274 0.328-0.1 0.653-0.208 0.978-0.315 0.36-0.118 0.719-0.236 1.076-0.364 0.274-0.099 0.545-0.204 0.816-0.308 0.405-0.154 0.809-0.31 1.21-0.477 0.213-0.089 0.423-0.184 0.635-0.276 0.452-0.196 0.901-0.397 1.347-0.609 0.154-0.074 0.306-0.151 0.459-0.227 0.492-0.242 0.982-0.49 1.466-0.751 0.103-0.055 0.203-0.114 0.305-0.17a43.842 43.842 0 0 0 1.554-0.893c0.061-0.037 0.121-0.076 0.182-0.114a43.345 43.345 0 0 0 1.608-1.031l0.082-0.057a43.646 43.646 0 0 0 6.372-5.258c0.12-0.12 0.231-0.246 0.35-0.368l198.08-198.08c16.969-16.967 16.969-44.475 0.003-61.441z" fill="#007bff" p-id="1708"></path></svg>